PathFileType	4	(X/Y/Z)	C:\Users\Biomechanik\SynologyDrive\AlexP\Athlete_03\Athlete_3_25_03_31\Squat_35kg_01\marker_experimental.trc
DataRate	CameraRate	NumFrames	NumMarkers	Units	OrigDataRate	OrigDataStartFrame	OrigNumFrames
200.000000	200.000000	4	55	mm	200.000000	161	646
Frame#	Time	BL			BR			GLAB			RFHD			LFHD			C7			T6			SPINMOL			SPINM2			SPINM3			T12			BELTOL			BELT2			BELT3			SACROL			SACR2			SACR3			LTHOL			LTH2			LTH3			LSHAOL			LSHA2			LSHA3			LHEE			LTOE			LM5			RTHOL			RTH2			RTH3			RSHAOL			RSHA2			RSHA3			RHEE			RTOE			RM5			STRN			XIPH			LACR			LUAOL			LUA2			LUA3			LLAOL			LLA2			LLA3			LWRR			LWRU			RACR			RUAOL			RUA2			RUA3			RLAOL			RLA2			RLA3			RWRR			RWRU			
		X1	Y1	Z1	X2	Y2	Z2	X3	Y3	Z3	X4	Y4	Z4	X5	Y5	Z5	X6	Y6	Z6	X7	Y7	Z7	X8	Y8	Z8	X9	Y9	Z9	X10	Y10	Z10	X11	Y11	Z11	X12	Y12	Z12	X13	Y13	Z13	X14	Y14	Z14	X15	Y15	Z15	X16	Y16	Z16	X17	Y17	Z17	X18	Y18	Z18	X19	Y19	Z19	X20	Y20	Z20	X21	Y21	Z21	X22	Y22	Z22	X23	Y23	Z23	X24	Y24	Z24	X25	Y25	Z25	X26	Y26	Z26	X27	Y27	Z27	X28	Y28	Z28	X29	Y29	Z29	X30	Y30	Z30	X31	Y31	Z31	X32	Y32	Z32	X33	Y33	Z33	X34	Y34	Z34	X35	Y35	Z35	X36	Y36	Z36	X37	Y37	Z37	X38	Y38	Z38	X39	Y39	Z39	X40	Y40	Z40	X41	Y41	Z41	X42	Y42	Z42	X43	Y43	Z43	X44	Y44	Z44	X45	Y45	Z45	X46	Y46	Z46	X47	Y47	Z47	X48	Y48	Z48	X49	Y49	Z49	X50	Y50	Z50	X51	Y51	Z51	X52	Y52	Z52	X53	Y53	Z53	X54	Y54	Z54	X55	Y55	Z55	

162	0.805	nan	nan	nan	178.5189361572266	1333.346313476562	-195.8161468505859	461.0368957519531	1516.60693359375	-1173.056396484375	408.3472290039062	1542.598754882812	-1111.921508789062	421.541259765625	1541.287841796875	-1247.544799804688	222.734130859375	1395.180908203125	-1186.981079101562	115.3778228759766	1256.288696289062	-1198.739135742188	96.42117309570312	1224.170776367188	-1216.901245117188	86.12018585205078	1217.7900390625	-1168.223876953125	76.53519439697266	1162.573486328125	-1203.075927734375	63.70914840698242	1097.062622070312	-1202.11962890625	31.65874481201172	1064.711059570312	-1218.344970703125	30.31481742858887	1061.039794921875	-1168.137939453125	11.4729175567627	1004.775451660156	-1198.71142578125	-14.36980247497559	917.1371459960939	-1225.898559570312	-14.13725662231445	916.3536987304689	-1174.212524414062	-20.69292259216309	855.9586791992189	-1200.793090820312	112.1677703857422	656.3232421875001	-1440.808715820312	87.26891326904297	583.2267456054689	-1422.805297851562	129.4101257324219	597.7126464843751	-1446.569213867188	139.8439636230469	333.5274963378907	-1536.355102539062	91.05767059326172	270.9019775390626	-1528.020874023438	139.1439208984375	272.1228637695314	-1543.701538085938	73.20166778564453	68.5736618041993	-1492.0703125	283.1813049316406	49.74745941162119	-1542.945434570312	217.7201995849609	25.88159370422373	-1632.223388671875	75.20839691162109	661.1203002929689	-962.5321044921875	133.8967132568359	632.7643432617188	-916.087890625	101.5746078491211	607.7544555664064	-944.1659545898438	98.43669128417969	351.3019409179688	-859.3987426757812	123.9632339477539	281.2346496582032	-834.9320678710938	83.27969360351562	290.6249694824219	-861.8910522460938	52.59062576293945	63.74267578125006	-913.9722900390625	251.6595001220703	47.88628387451177	-836.1359252929688	170.0151214599609	36.38088226318364	-756.6669311523438	353.004638671875	1252.28466796875	-1189.840576171875	335.8869323730469	1108.09130859375	-1186.4326171875	252.4126281738281	1359.64208984375	-1347.390747070312	133.7634582519531	1255.948486328125	-1436.079467773438	85.30403900146484	1212.975708007812	-1424.68408203125	112.598747253418	1202.384765625	-1466.716064453125	76.81822204589844	1139.045288085938	-1536.661376953125	143.3916015625	1132.367553710938	-1579.459106445312	119.0336990356445	1174.27099609375	-1564.362426757812	173.3703155517578	1253.525512695312	-1604.745239257812	198.0537567138672	1273.82177734375	-1531.7060546875	258.2092895507812	1356.4501953125	-1035.490966796875	142.1067657470703	1254.744018554688	-954.1879272460936	113.5380935668945	1202.624755859375	-925.1151123046874	94.16980743408203	1213.410888671875	-972.3206176757811	94.57309722900391	1129.645874023438	-836.9364013671874	103.7495727539062	1207.804809570312	-821.8158569335936	133.4551391601562	1169.04052734375	-808.0838012695311	171.7037963867188	1250.126342773438	-780.4204101562499	208.1786499023438	1279.452026367188	-846.2706909179686	
163	0.8100000000000001	nan	nan	nan	178.8579406738281	1331.781616210938	-195.8705291748046	461.19140625	1514.99951171875	-1173.134765625	408.4686279296875	1540.92138671875	-1112.00537109375	421.6508178710938	1539.63232421875	-1247.627563476562	223.0627136230469	1393.5234375	-1187.043701171875	115.5270614624023	1254.894409179688	-1198.7822265625	96.48613739013672	1222.857788085938	-1216.940795898438	86.22549438476562	1216.477294921875	-1168.255615234375	76.45032501220703	1161.306030273438	-1203.125122070312	63.44583129882812	1095.884887695312	-1202.177490234375	31.27590370178223	1063.67919921875	-1218.39404296875	29.90036201477051	1060.037841796875	-1168.193481445312	10.86781120300293	1003.828796386719	-1198.726684570312	-15.19734477996826	915.8558959960939	-1225.908081054688	-14.94637107849121	915.0990600585939	-1174.222900390625	-21.69403266906738	854.7050781250001	-1200.767211914062	112.446159362793	655.3328857421876	-1441.557373046875	88.09188842773438	581.9789428710939	-1423.865478515625	130.179443359375	596.8810424804689	-1447.541748046875	141.0826263427734	333.3790588378907	-1537.389038085938	92.01959991455078	270.9868469238282	-1528.84228515625	140.110595703125	271.9653320312501	-1544.52392578125	73.20279693603516	68.58730316162118	-1492.0947265625	283.1827392578125	49.74955749511728	-1542.949951171875	217.7188720703125	25.87256813049326	-1632.231323242188	75.34595489501953	659.9569702148439	-961.6712036132812	134.2127075195312	632.1858520507812	-915.1124877929688	102.1103668212891	606.8465576171876	-943.1434936523438	99.64511108398438	351.2077636718751	-858.1786499023438	124.9633941650391	280.9552307128907	-834.091552734375	84.24254608154297	290.5798339843751	-860.9072875976562	52.58083343505859	63.78005981445318	-913.9420776367188	251.6622467041016	47.87564086914067	-836.1209106445312	170.0099945068359	36.37869644165044	-756.6565551757812	353.1572570800781	1250.414794921875	-1189.91064453125	335.7095336914062	1106.215087890625	-1186.484375	252.7360992431641	1357.943725585938	-1347.46630859375	133.9896545410156	1254.360595703125	-1436.156860351562	85.48179626464844	1211.447875976562	-1424.751586914062	112.7668151855469	1200.816162109375	-1466.781616210938	76.95092010498047	1137.491333007812	-1536.709106445312	143.5372619628906	1130.75146484375	-1579.476806640625	119.2067642211914	1172.677612304688	-1564.400756835938	173.6143951416016	1251.882690429688	-1604.7734375	198.2884979248047	1272.174926757812	-1531.730346679688	258.5610961914062	1354.75244140625	-1035.548095703125	142.4152374267578	1253.137817382812	-954.2010498046874	113.804817199707	1201.05078125	-925.0985107421874	94.426513671875	1211.848510742188	-972.3049926757811	94.80640411376953	1128.10693359375	-836.9210205078124	103.9910049438477	1206.26806640625	-821.8323364257811	133.7226867675781	1167.488647460938	-808.0942382812499	171.976318359375	1248.574462890625	-780.4510498046874	208.4819641113281	1277.859008789062	-846.3249511718749	
164	0.8150000000000001	nan	nan	nan	179.1943969726562	1330.1494140625	-195.9248809814452	461.3600463867188	1513.347412109375	-1173.212524414062	408.6008911132812	1539.194458007812	-1112.08935546875	421.7712707519531	1537.925903320312	-1247.70947265625	223.409423828125	1391.812133789062	-1187.109375	115.6859588623047	1253.462646484375	-1198.8291015625	96.55764770507812	1221.510009765625	-1216.984985351562	86.34009552001953	1215.128540039062	-1168.291259765625	76.36808013916016	1160.005249023438	-1203.179931640625	63.18509292602539	1094.667236328125	-1202.242309570312	30.89138412475586	1062.60693359375	-1218.447998046875	29.48721694946289	1058.994750976562	-1168.25634765625	10.26305961608887	1002.841857910156	-1198.747924804688	-16.03165626525879	914.5408325195314	-1225.919189453125	-15.76145172119141	913.8112182617189	-1174.235107421875	-22.68905258178711	853.4162597656251	-1200.741088867188	112.659309387207	654.3040161132814	-1442.270263671875	88.88420867919922	580.6983642578126	-1424.849853515625	130.8914642333984	596.0162353515626	-1448.47412109375	142.2862701416016	333.2212219238282	-1538.419067382812	92.95813751220703	271.0581665039064	-1529.64794921875	141.0496215820312	271.7974548339845	-1545.341918945312	73.203125	68.59737396240243	-1492.119873046875	283.18408203125	49.75341033935556	-1542.95556640625	217.7171173095703	25.86195945739756	-1632.240356445312	75.46428680419922	658.7678222656251	-960.8384399414062	134.4903411865234	631.5792846679688	-914.1513671875	102.6191253662109	605.9151611328126	-942.1461791992188	100.8307571411133	351.1021728515626	-856.9742431640625	125.9410018920898	280.6685180664063	-833.256103515625	85.18911743164062	290.5244445800782	-859.9371948242188	52.57244110107422	63.81590652465826	-913.9119873046875	251.6638946533203	47.86610031127935	-836.1046752929688	170.0040435791016	36.37581634521489	-756.6454467773438	353.3215942382812	1248.481201171875	-1189.984008789062	335.533447265625	1104.278076171875	-1186.541137695312	253.0660705566406	1356.18994140625	-1347.543579101562	134.2178192138672	1252.727905273438	-1436.23388671875	85.65507507324219	1209.884033203125	-1424.814819335938	112.9337997436523	1199.201782226562	-1466.8359375	77.06208038330078	1135.897705078125	-1536.743041992188	143.6572875976562	1129.08251953125	-1579.484375	119.3626098632812	1171.036376953125	-1564.429443359375	173.8533630371094	1250.178833007812	-1604.800170898438	198.5234375	1270.46826171875	-1531.754760742188	258.9213256835938	1352.999389648438	-1035.607788085938	142.7328491210938	1251.477661132812	-954.2197265624999	114.0739974975586	1199.42529296875	-925.0902709960936	94.68691253662109	1210.239501953125	-972.2958374023436	95.03056335449219	1126.5146484375	-836.9176635742186	104.2261428833008	1204.676879882812	-821.8581542968749	133.9830322265625	1165.87939453125	-808.1136474609374	172.2516784667969	1246.9599609375	-780.4863891601561	208.7863311767578	1276.203491210938	-846.3807983398436	
165	0.8200000000000001	nan	nan	nan	179.528564453125	1328.452880859375	-195.979263305664	461.5436706542969	1511.65087890625	-1173.28955078125	408.7454223632812	1537.419799804688	-1112.173461914062	421.9037170410156	1536.16943359375	-1247.790161132812	223.7714538574219	1390.048706054688	-1187.177856445312	115.8537292480469	1251.9931640625	-1198.88037109375	96.63596343994141	1220.127075195312	-1217.03466796875	86.46360778808594	1213.743774414062	-1168.331298828125	76.28907012939453	1158.670532226562	-1203.241333007812	62.92781448364258	1093.41015625	-1202.314575195312	30.50646209716797	1061.496337890625	-1218.506469726562	29.07667541503906	1057.912231445312	-1168.324829101562	9.660190582275391	1001.816650390625	-1198.774536132812	-16.87205505371094	913.1954345703126	-1225.931274414062	-16.58148002624512	912.4938354492189	-1174.248657226562	-23.67846488952637	852.0958862304689	-1200.714477539062	112.8098754882812	653.2341918945314	-1442.947143554688	89.64620971679688	579.3840332031251	-1425.759765625	131.5459899902344	595.1163330078126	-1449.366088867188	143.4559783935547	333.0550842285157	-1539.444946289062	93.87464904785156	271.1166076660157	-1530.43896484375	141.9626159667969	271.6199035644532	-1546.155639648438	73.20259094238281	68.60443878173837	-1492.145141601562	283.1855163574219	49.75920104980478	-1542.962646484375	217.7149047851562	25.84983444213877	-1632.250732421875	75.56344604492188	657.5555419921876	-960.03271484375	134.7309417724609	630.947509765625	-913.2039794921875	103.1016616821289	604.9626464843751	-941.1722412109375	101.9925231933594	350.9871826171876	-855.7889404296875	126.8924102783203	280.3759155273438	-832.4254760742188	86.11815643310547	290.4613342285157	-858.9837646484375	52.5666389465332	63.84960937500006	-913.8823852539062	251.6645355224609	47.8577156066895	-836.087890625	169.9974517822266	36.37246704101567	-756.6338500976562	353.496826171875	1246.487182617188	-1190.06103515625	335.360107421875	1102.28369140625	-1186.603515625	253.4010162353516	1354.383056640625	-1347.62255859375	134.4473724365234	1251.05126953125	-1436.310668945312	85.82424163818359	1208.283935546875	-1424.873901367188	113.0997543334961	1197.54248046875	-1466.8798828125	77.15287017822266	1134.264526367188	-1536.764892578125	143.7535247802734	1127.362182617188	-1579.482788085938	119.5022583007812	1169.348266601562	-1564.449462890625	174.0870361328125	1248.416259765625	-1604.825927734375	198.7585296630859	1268.703857421875	-1531.779907226562	259.2884216308594	1351.192504882812	-1035.670288085938	143.0579376220703	1249.764282226562	-954.2435913085936	114.3451156616211	1197.748779296875	-925.0896606445311	94.95047760009766	1208.583618164062	-972.2928466796874	95.24673461914062	1124.869506835938	-836.9252929687499	104.4570465087891	1203.031860351562	-821.8919677734374	134.2371063232422	1164.214111328125	-808.1413574218749	172.5296020507812	1245.284912109375	-780.5261840820311	209.0908050537109	1274.487548828125	-846.4382934570311	
